<svg xmlns="http://www.w3.org/2000/svg" viewBox="0 0 48 48" fill="none">
  <circle cx="24" cy="24" r="24" fill="#25D366"/>
  <path d="M24 10C16.28 10 10 16.28 10 24c0 2.47.65 4.78 1.78 6.78L10 38l7.4-1.94A13.93 13.93 0 0024 38c7.72 0 14-6.28 14-14S31.72 10 24 10zm0 25.6c-2.2 0-4.25-.59-6.02-1.62l-.43-.26-4.46 1.17 1.19-4.35-.28-.44A11.55 11.55 0 0112.4 24c0-6.4 5.2-11.6 11.6-11.6S35.6 17.6 35.6 24 30.4 35.6 24 35.6zm6.36-8.68c-.35-.17-2.06-1.02-2.38-1.13-.32-.12-.55-.17-.78.17-.24.35-.91 1.13-1.12 1.37-.2.23-.41.26-.76.09-.35-.18-1.47-.54-2.8-1.73-1.04-.92-1.73-2.06-1.94-2.41-.2-.35-.02-.54.15-.71.16-.16.35-.41.53-.62.17-.2.23-.35.35-.58.12-.24.06-.44-.03-.62-.09-.17-.78-1.88-1.07-2.58-.28-.68-.57-.58-.78-.6-.2 0-.44-.03-.67-.03-.24 0-.62.09-.94.44-.32.35-1.23 1.2-1.23 2.93s1.26 3.4 1.44 3.64c.17.23 2.48 3.79 6.01 5.31.84.36 1.49.58 2 .74.84.27 1.61.23 2.21.14.67-.1 2.06-.84 2.35-1.66.29-.82.29-1.52.2-1.66-.08-.15-.32-.24-.67-.41z" fill="white"/>
</svg>
