<svg xmlns="http://www.w3.org/2000/svg" viewBox="0 0 120 120" width="120" height="120">
  <defs>
    <linearGradient id="bg" x1="0%" y1="0%" x2="100%" y2="100%">
      <stop offset="0%" stop-color="#1a1a2e"/>
      <stop offset="100%" stop-color="#16213e"/>
    </linearGradient>
    <linearGradient id="accent" x1="0%" y1="0%" x2="0%" y2="100%">
      <stop offset="0%" stop-color="#7c3aed"/>
      <stop offset="100%" stop-color="#3b82f6"/>
    </linearGradient>
    <linearGradient id="wave" x1="0%" y1="0%" x2="100%" y2="0%">
      <stop offset="0%" stop-color="#7c3aed" stop-opacity="0.6"/>
      <stop offset="50%" stop-color="#3b82f6" stop-opacity="0.8"/>
      <stop offset="100%" stop-color="#7c3aed" stop-opacity="0.6"/>
    </linearGradient>
  </defs>
  <rect width="120" height="120" rx="24" fill="url(#bg)"/>
  <g opacity="0.5">
    <rect x="18" y="48" width="4" height="24" rx="2" fill="url(#wave)"/>
    <rect x="26" y="38" width="4" height="44" rx="2" fill="url(#wave)"/>
    <rect x="34" y="44" width="4" height="32" rx="2" fill="url(#wave)"/>
    <rect x="82" y="44" width="4" height="32" rx="2" fill="url(#wave)"/>
    <rect x="90" y="38" width="4" height="44" rx="2" fill="url(#wave)"/>
    <rect x="98" y="48" width="4" height="24" rx="2" fill="url(#wave)"/>
  </g>
  <rect x="47" y="28" width="26" height="40" rx="13" fill="url(#accent)"/>
  <line x1="52" y1="38" x2="68" y2="38" stroke="rgba(255,255,255,0.2)" stroke-width="1.5" stroke-linecap="round"/>
  <line x1="52" y1="43" x2="68" y2="43" stroke="rgba(255,255,255,0.2)" stroke-width="1.5" stroke-linecap="round"/>
  <line x1="52" y1="48" x2="68" y2="48" stroke="rgba(255,255,255,0.2)" stroke-width="1.5" stroke-linecap="round"/>
  <line x1="52" y1="53" x2="68" y2="53" stroke="rgba(255,255,255,0.2)" stroke-width="1.5" stroke-linecap="round"/>
  <path d="M40 55 Q40 78 60 78 Q80 78 80 55" fill="none" stroke="url(#accent)" stroke-width="3.5" stroke-linecap="round"/>
  <line x1="60" y1="78" x2="60" y2="92" stroke="url(#accent)" stroke-width="3.5" stroke-linecap="round"/>
  <line x1="48" y1="92" x2="72" y2="92" stroke="url(#accent)" stroke-width="3.5" stroke-linecap="round"/>
</svg>
